<?xml version="1.0" encoding="utf-8"?>
<!-- Generator: Adobe Illustrator 16.0.0, SVG Export Plug-In . SVG Version: 6.00 Build 0)  -->
<!DOCTYPE svg PUBLIC "-//W3C//DTD SVG 1.1//EN" "http://www.w3.org/Graphics/SVG/1.1/DTD/svg11.dtd">
<svg version="1.1" id="Layer_1" xmlns="http://www.w3.org/2000/svg" xmlns:xlink="http://www.w3.org/1999/xlink" x="0px" y="0px"
	 width="76px" height="67px" viewBox="0 0 76 67" enable-background="new 0 0 76 67" xml:space="preserve">
<g>
	<defs>
		<rect id="SVGID_1_" y="-4" width="76" height="145"/>
	</defs>
	<clipPath id="SVGID_2_">
		<use xlink:href="#SVGID_1_"  overflow="visible"/>
	</clipPath>
	<path clip-path="url(#SVGID_2_)" fill="#0000B5" d="M38,67c-1.068,0-2.097-0.389-2.9-1.094c-3.03-2.66-5.951-5.16-8.528-7.365
		l-0.013-0.011c-7.556-6.466-14.081-12.05-18.621-17.55C2.864,34.831,0.5,29.001,0.5,22.632c0-6.188,2.113-11.897,5.949-16.075
		C10.332,2.329,15.659,0,21.452,0c4.329,0,8.294,1.374,11.784,4.085C34.996,5.453,36.593,7.127,38,9.08
		c1.407-1.953,3.003-3.627,4.764-4.995C46.255,1.374,50.22,0,54.549,0c5.791,0,11.119,2.329,15.002,6.557
		c3.836,4.178,5.949,9.887,5.949,16.075c0,6.369-2.363,12.199-7.438,18.348c-4.54,5.5-11.063,11.083-18.619,17.548
		c-2.581,2.209-5.507,4.713-8.544,7.379C40.097,66.611,39.067,67,38,67 M21.452,4.412c-4.551,0-8.731,1.823-11.772,5.135
		c-3.088,3.362-4.787,8.009-4.787,13.085c0,5.357,1.982,10.148,6.428,15.533c4.297,5.206,10.687,10.675,18.087,17.007l0.014,0.011
		c2.587,2.215,5.519,4.724,8.572,7.404c3.07-2.685,6.007-5.198,8.599-7.416c7.399-6.332,13.79-11.8,18.087-17.006
		c4.444-5.385,6.427-10.176,6.427-15.533c0-5.076-1.7-9.723-4.786-13.085c-3.04-3.312-7.223-5.135-11.771-5.135
		c-3.334,0-6.395,1.063-9.098,3.162c-2.408,1.871-4.086,4.236-5.069,5.891c-0.506,0.85-1.396,1.358-2.382,1.358
		s-1.876-0.508-2.382-1.358c-0.983-1.655-2.662-4.02-5.07-5.891C27.846,5.475,24.785,4.412,21.452,4.412"/>
	<path clip-path="url(#SVGID_2_)" fill="#0000B5" d="M38,138c-1.068,0-2.097-0.389-2.899-1.094c-3.031-2.66-5.952-5.16-8.529-7.365
		l-0.012-0.012c-7.557-6.466-14.081-12.049-18.622-17.549C2.864,105.832,0.5,100.001,0.5,93.633c0-6.188,2.113-11.897,5.949-16.076
		C10.332,73.329,15.659,71,21.452,71c4.329,0,8.294,1.375,11.784,4.085c1.761,1.367,3.357,3.042,4.764,4.995
		c1.407-1.953,3.003-3.628,4.765-4.995C46.255,72.375,50.22,71,54.549,71c5.791,0,11.119,2.329,15.002,6.557
		c3.836,4.179,5.949,9.888,5.949,16.076c0,6.368-2.363,12.199-7.438,18.348c-4.54,5.5-11.063,11.083-18.619,17.548
		c-2.581,2.208-5.507,4.713-8.544,7.379C40.097,137.611,39.067,138,38,138"/>
</g>
</svg>
