<?xml version="1.0" encoding="utf-8"?>
<!-- Generator: Adobe Illustrator 16.0.0, SVG Export Plug-In . SVG Version: 6.00 Build 0)  -->
<!DOCTYPE svg PUBLIC "-//W3C//DTD SVG 1.1//EN" "http://www.w3.org/Graphics/SVG/1.1/DTD/svg11.dtd">
<svg version="1.1" id="Layer_1" xmlns="http://www.w3.org/2000/svg" xmlns:xlink="http://www.w3.org/1999/xlink" x="0px" y="0px"
	 width="348.529px" height="72.767px" viewBox="0 0 348.529 72.767" enable-background="new 0 0 348.529 72.767"
	 xml:space="preserve">
<g>
	<defs>
		<rect id="SVGID_1_" width="348.529" height="72.767"/>
	</defs>
	<clipPath id="SVGID_2_">
		<use xlink:href="#SVGID_1_"  overflow="visible"/>
	</clipPath>
	<path clip-path="url(#SVGID_2_)" fill="#0000B5" d="M283.701,0h24.4c0,6.738-5.462,12.2-12.2,12.2
		C289.165,12.2,283.701,6.738,283.701,0"/>
	<path clip-path="url(#SVGID_2_)" fill="#0000B5" d="M318.59,0h24.4c0,6.738-5.462,12.2-12.2,12.2
		C324.054,12.2,318.59,6.738,318.59,0"/>
	<path clip-path="url(#SVGID_2_)" fill="#0000B5" d="M0.104,31.458c0-4.666,0-9.291-0.104-13.908h9.375
		c2.976,0,5.417,2.384,5.461,5.36c0.006,0.374,0.015,0.736,0.028,1.074c2.739-4.02,7.077-7.686,14.995-7.686
		c7.759,0,12.024,4.017,13.925,8.212c3.157-4.412,7.82-8.212,16.627-8.212c9.406,0,17.104,5.782,17.104,19.815v35.404H62.94V37.931
		c0-4.874-1.769-9.64-7.885-9.64c-6.35,0-8.826,4.094-8.826,12.372v30.854H31.574V38.495c0-5.592-1.376-10.112-7.756-10.112
		c-6.075,0-8.954,3.736-8.954,12.994v30.141H0.104V31.458z"/>
	<path clip-path="url(#SVGID_2_)" fill="#0000B5" d="M135.069,57.573c0,5.139,0.417,12.643,0.729,13.943h-10.447
		c-2.362,0-4.34-1.811-4.524-4.165c-0.033-0.421-0.052-0.802-0.058-1.108c-1.957,3.029-5.626,6.524-15.172,6.524
		c-13.011,0-18.5-8.553-18.5-16.923c0-12.296,9.872-17.968,25.695-17.968h7.701v-3.298c0-3.837-1.381-7.609-8.309-7.609
		c-6.309,0-7.689,2.68-8.377,6.588H89.6c0.808-9.589,6.74-17.35,23.147-17.259c14.455,0.093,22.322,5.74,22.322,18.585V57.573z
		 M120.506,46.949h-6.088c-9.002,0-12.343,2.748-12.343,7.951c0,3.906,2.399,7.197,7.77,7.197c9.494,0,10.661-6.6,10.661-13.729
		V46.949z"/>
	<path clip-path="url(#SVGID_2_)" fill="#0000B5" d="M163.54,40.319c3.678-4.987,10.094-12.546,16.937-20.79
		c1.04-1.252,2.584-1.979,4.212-1.979h14.563l-18.809,20.381l20.59,33.586h-16.929L170.45,47.508l-6.91,6.689v17.319h-14.942V17.55
		h9.48c3.017,0,5.462,2.446,5.462,5.462V40.319z"/>
	<path clip-path="url(#SVGID_2_)" fill="#0000B5" d="M217.203,47.729c0.012,6.75,3.395,13.346,10.831,13.346
		c4.649,0,6.816-1.393,8.205-3.46c0.989-1.469,2.685-2.302,4.455-2.302h11.71c-1.914,6.605-7.806,17.455-24.761,17.455
		c-17.776,0-25.488-13.291-25.488-27.449c0-16.929,8.689-29.02,26.022-29.02c18.533,0,24.836,13.408,24.836,26.879
		c0,1.827,0,3.012-0.196,4.551H217.203z M238.046,38.552c-0.104-6.284-2.612-11.572-9.895-11.572
		c-7.159,0-10.04,4.938-10.636,11.572H238.046z"/>
	<path clip-path="url(#SVGID_2_)" fill="#0000B5" d="M288.431,17.55h10.378c2.521,0,4.563,2.043,4.563,4.564v49.402h-14.941V17.55z"
		/>
	<path clip-path="url(#SVGID_2_)" fill="#0000B5" d="M347.063,64.465v7.78h-10.043c-10.527,0-14.006-5.631-14.006-15.072v-28.39
		h-8.318V17.55h8.318h14.943h6.014c2.518,0,4.558,2.04,4.558,4.557v6.677h-10.571v26.633c0,3.913,3.354,5.11,5.991,5.446
		C345.742,61.093,347.063,62.657,347.063,64.465"/>
</g>
</svg>
