<?xml version="1.0" encoding="utf-8"?>
<!-- Generator: Adobe Illustrator 16.0.0, SVG Export Plug-In . SVG Version: 6.00 Build 0)  -->
<!DOCTYPE svg PUBLIC "-//W3C//DTD SVG 1.1//EN" "http://www.w3.org/Graphics/SVG/1.1/DTD/svg11.dtd">
<svg version="1.1" id="Layer_1" xmlns="http://www.w3.org/2000/svg" xmlns:xlink="http://www.w3.org/1999/xlink" x="0px" y="0px"
	 width="129.487px" height="129.486px" viewBox="0 0 129.487 129.486" enable-background="new 0 0 129.487 129.486"
	 xml:space="preserve">
<g>
	<defs>
		<rect id="SVGID_1_" width="129.487" height="129.486"/>
	</defs>
	<clipPath id="SVGID_2_">
		<use xlink:href="#SVGID_1_"  overflow="visible"/>
	</clipPath>
	<path clip-path="url(#SVGID_2_)" d="M123.124,70.525"/>
	<path clip-path="url(#SVGID_2_)" d="M40.616,109.732l0.544,0.284c2.643,1.387,5.507,2.565,8.513,3.501l0.587,0.184l1.639,9.836
		c0.579,3.447,3.538,5.949,7.035,5.949h11.59c3.498,0,6.457-2.502,7.034-5.95l1.669-9.837l0.587-0.182
		c3.054-0.945,6.009-2.17,8.783-3.637l0.547-0.289l8.11,5.797c1.205,0.868,2.637,1.325,4.143,1.325c1.895,0,3.682-0.744,5.034-2.096
		l8.186-8.187c2.472-2.472,2.796-6.331,0.771-9.179l-5.795-8.136l0.285-0.544c1.534-2.926,2.758-5.88,3.638-8.78l0.181-0.593
		l9.841-1.642c3.446-0.577,5.949-3.535,5.949-7.033V58.961c0.048-3.501-2.432-6.454-5.896-7.034l-0.002-0.001l-9.835-1.669
		l-0.182-0.587c-0.945-3.049-2.169-6.004-3.637-8.782l-0.288-0.547l5.797-8.111c2.033-2.857,1.711-6.716-0.77-9.173l-8.188-8.188
		c-1.353-1.353-3.141-2.098-5.034-2.098c-1.489,0-2.911,0.458-4.111,1.323l-8.143,5.8l-0.545-0.288
		c-2.961-1.563-6.023-2.823-9.104-3.745l-0.596-0.178l-1.643-9.732C76.733,2.502,73.775,0,70.278,0H58.715
		c-3.498,0-6.457,2.503-7.035,5.951l-1.697,9.945l-0.585,0.183c-3.007,0.941-5.952,2.181-8.75,3.689l-0.55,0.297l-8.061-5.806
		c-1.202-0.864-2.634-1.321-4.141-1.321c-1.918,0-3.704,0.742-5.027,2.09l-8.221,8.193c-2.471,2.471-2.795,6.331-0.77,9.177
		l5.851,8.219l-0.286,0.544c-1.454,2.774-2.659,5.736-3.582,8.805l-0.179,0.595l-9.731,1.641C2.503,52.78,0,55.739,0,59.236v11.563
		c0,3.497,2.503,6.455,5.951,7.034l9.945,1.697l0.182,0.584c0.942,3.009,2.183,5.953,3.69,8.752l0.296,0.55l-5.777,8.033
		c-2.032,2.855-1.709,6.715,0.772,9.171l8.187,8.188c1.353,1.354,3.14,2.098,5.034,2.098c1.491,0,2.912-0.457,4.114-1.322
		L40.616,109.732z M70.524,124.125H58.961c-0.855,0-1.571-0.609-1.703-1.449l-1.92-11.526c-0.18-1.053-0.957-1.901-1.98-2.162
		c-3.981-1.03-7.853-2.617-11.513-4.717c-0.897-0.511-2.134-0.449-2.916,0.13l-9.629,6.849c-0.378,0.231-0.682,0.324-0.992,0.324
		c-0.268,0-0.784-0.067-1.23-0.515l-8.184-8.185c-0.58-0.578-0.669-1.474-0.217-2.179l6.784-9.519
		c0.616-0.875,0.664-2.046,0.117-2.979c-2.221-3.7-3.885-7.652-4.94-11.737c-0.282-1.021-1.134-1.805-2.169-1.982L6.853,72.499
		c-0.826-0.125-1.436-0.841-1.436-1.699V59.236c0-0.857,0.61-1.573,1.451-1.703l11.441-1.92c1.069-0.182,1.93-0.969,2.19-2.004
		c1.058-4.205,2.674-8.175,4.805-11.8c0.534-0.911,0.478-2.058-0.143-2.919l-6.842-9.619c-0.48-0.682-0.397-1.635,0.191-2.221
		l8.184-8.184c0.232-0.233,0.635-0.513,1.229-0.513c0.366,0,0.716,0.116,1.01,0.334l9.459,6.746
		c0.875,0.616,2.047,0.664,2.978,0.117c3.702-2.221,7.653-3.885,11.737-4.94c1.021-0.28,1.805-1.133,1.984-2.168l1.978-11.617
		c0.125-0.826,0.842-1.437,1.7-1.437h11.564c0.856,0,1.571,0.61,1.702,1.452l1.921,11.441c0.182,1.071,0.968,1.93,2.003,2.189
		c4.24,1.067,8.293,2.73,12.049,4.944c0.937,0.549,2.066,0.502,2.954-0.122l9.468-6.806c0.375-0.231,0.688-0.326,0.996-0.326
		c0.267,0,0.78,0.067,1.227,0.511l8.188,8.187c0.575,0.58,0.665,1.473,0.222,2.176l-6.816,9.577
		c-0.62,0.861-0.665,2.017-0.117,2.952c2.159,3.624,3.805,7.584,4.886,11.764c0.262,1.045,1.104,1.819,2.149,1.981l11.552,1.952
		c0.827,0.128,1.438,0.844,1.438,1.701v12.563h-0.343c-0.26,0.367-0.661,0.629-1.137,0.701l-11.525,1.922
		c-1.051,0.179-1.9,0.956-2.161,1.979c-1.08,4.179-2.725,8.139-4.888,11.774c-0.548,0.932-0.502,2.063,0.121,2.949l6.783,9.556
		c0.478,0.685,0.394,1.636-0.188,2.219l-8.188,8.188c-0.234,0.233-0.637,0.512-1.229,0.512c-0.364,0-0.712-0.115-1.007-0.333
		l-9.516-6.775c-0.859-0.618-2.016-0.663-2.952-0.115c-3.631,2.161-7.591,3.806-11.765,4.885c-1.03,0.258-1.823,1.121-1.981,2.149
		l-1.952,11.553C72.098,123.513,71.382,124.125,70.524,124.125 M70.251,122.362c0,0.003-0.001,0.005-0.001,0.008L70.251,122.362z
		 M59.231,122.353l0.001,0.004C59.232,122.355,59.232,122.354,59.231,122.353 M101.561,109.37l0.005,0.004
		C101.564,109.372,101.563,109.371,101.561,109.37 M7.191,59.506l-0.005,0.001C7.188,59.507,7.189,59.506,7.191,59.506
		 M122.388,59.233c0.002,0,0.005,0.001,0.007,0.001L122.388,59.233z M27.755,20.305c0.002,0.002,0.004,0.003,0.006,0.004
		L27.755,20.305z M70.061,7.16c0,0.002,0.001,0.003,0.001,0.005L70.061,7.16z M59.043,7.145l-0.001,0.009
		C59.042,7.15,59.043,7.147,59.043,7.145"/>
	<path clip-path="url(#SVGID_2_)" d="M64.757,85.687"/>
	<path clip-path="url(#SVGID_2_)" d="M64.757,37.355c-15.094,0-27.374,12.28-27.374,27.374c0,15.093,12.28,27.374,27.374,27.374
		c15.094,0,27.373-12.28,27.373-27.374C92.13,49.636,79.851,37.355,64.757,37.355 M64.757,86.687
		c-12.107,0-21.958-9.851-21.958-21.958c0-12.108,9.851-21.959,21.958-21.959c12.107,0,21.957,9.851,21.957,21.959
		C86.714,76.836,76.864,86.687,64.757,86.687"/>
</g>
</svg>
